{
  "accessors": [
    {
      "bufferView": 2,
      "componentType": 5126,
      "count": 4356,
      "max": [
        9157.0615234375,
        4851.7802734375,
        4564.5537109375
      ],
      "min": [
        -345.68637084960938,
        -4931.45263671875,
        -3886.978515625
      ],
      "type": "VEC3"
    },
    {
      "bufferView": 2,
      "byteOffset": 52272,
      "componentType": 5126,
      "count": 4356,
      "max": [
        0.99919945001602173,
        0.99992269277572632,
        0.9999268651008606
      ],
      "min": [
        -0.99981403350830078,
        -0.99991863965988159,
        -0.99992692470550537
      ],
      "type": "VEC3"
    },
    {
      "bufferView": 3,
      "componentType": 5126,
      "count": 4356,
      "max": [
        0.99924725294113159,
        0.98742860555648804,
        0.99998873472213745,
        1
      ],
      "min": [
        -0.99987143278121948,
        -0.99988937377929688,
        -0.99998873472213745,
        -1
      ],
      "type": "VEC4"
    },
    {
      "bufferView": 1,
      "componentType": 5126,
      "count": 4356,
      "max": [
        0.99601531028747559,
        0.98926138877868652
      ],
      "min": [
        0.0096765756607055664,
        0.0102272629737854
      ],
      "type": "VEC2"
    },
    {
      "bufferView": 0,
      "componentType": 5125,
      "count": 21054,
      "max": [
        4355
      ],
      "min": [
        0
      ],
      "type": "SCALAR"
    }
  ],
  "asset": {
    "extras": {
      "author": "Eques_inferno (https://sketchfab.com/Eques_inferno)",
      "license": "CC-BY-4.0 (http://creativecommons.org/licenses/by/4.0/)",
      "source": "https://sketchfab.com/3d-models/japanese-demon-mask-da21beea26034da9b889ec075bec6207",
      "title": "Japanese demon mask"
    },
    "generator": "Sketchfab-7.27.0",
    "version": "2.0"
  },
  "bufferViews": [
    {
      "buffer": 0,
      "byteLength": 84216,
      "byteOffset": 0,
      "name": "floatBufferViews",
      "target": 34963
    },
    {
      "buffer": 0,
      "byteLength": 34848,
      "byteOffset": 84216,
      "byteStride": 8,
      "name": "floatBufferViews",
      "target": 34962
    },
    {
      "buffer": 0,
      "byteLength": 104544,
      "byteOffset": 119064,
      "byteStride": 12,
      "name": "floatBufferViews",
      "target": 34962
    },
    {
      "buffer": 0,
      "byteLength": 69696,
      "byteOffset": 223608,
      "byteStride": 16,
      "name": "floatBufferViews",
      "target": 34962
    }
  ],
  "buffers": [
    {
      "byteLength": 293304,
      "uri": "scene.bin"
    }
  ],
  "images": [
    {
      "uri": "textures/lambert2_baseColor.png"
    },
    {
      "uri": "textures/lambert2_metallicRoughness.png"
    },
    {
      "uri": "textures/lambert2_normal.png"
    }
  ],
  "materials": [
    {
      "doubleSided": true,
      "emissiveFactor": [
        0,
        0,
        0
      ],
      "name": "lambert2",
      "normalTexture": {
        "index": 2,
        "scale": 1,
        "texCoord": 0
      },
      "pbrMetallicRoughness": {
        "baseColorFactor": [
          1,
          1,
          1,
          1
        ],
        "baseColorTexture": {
          "index": 0,
          "texCoord": 0
        },
        "metallicFactor": 1,
        "metallicRoughnessTexture": {
          "index": 1,
          "texCoord": 0
        },
        "roughnessFactor": 1
      }
    }
  ],
  "meshes": [
    {
      "name": "polySurface1_lambert2_0",
      "primitives": [
        {
          "attributes": {
            "NORMAL": 1,
            "POSITION": 0,
            "TANGENT": 2,
            "TEXCOORD_0": 3
          },
          "indices": 4,
          "material": 0,
          "mode": 4
        }
      ]
    }
  ],
  "nodes": [
    {
      "children": [
        1
      ],
      "name": "RootNode (gltf orientation matrix)",
      "rotation": [
        -0.70710678118654746,
        -0,
        -0,
        0.70710678118654757
      ]
    },
    {
      "children": [
        2
      ],
      "matrix": [
        1,
        0,
        0,
        0,
        0,
        1,
        0,
        0,
        0,
        0,
        1,
        0,
        0.018920781090855598,
        0,
        0.44002857804298401,
        1
      ],
      "name": "RootNode (model correction matrix)"
    },
    {
      "children": [
        3
      ],
      "matrix": [
        1,
        0,
        0,
        0,
        0,
        0,
        1,
        0,
        0,
        -1,
        0,
        0,
        0,
        0,
        0,
        1
      ],
      "name": "f366d0d80294418c99ef21c9294dcd18.fbx"
    },
    {
      "children": [
        4
      ],
      "name": "RootNode"
    },
    {
      "children": [
        5
      ],
      "matrix": [
        0.00061214571344077198,
        -0.00018668723639458457,
        0,
        0,
        0.00018668723639458457,
        0.00061214571344077198,
        0,
        0,
        0,
        0,
        0.0006399800768122077,
        0,
        -1.4761524200439453,
        3.1202600002288818,
        -0.36951306462287903,
        1
      ],
      "name": "polySurface1"
    },
    {
      "mesh": 0,
      "name": "polySurface1_lambert2_0"
    }
  ],
  "samplers": [
    {
      "magFilter": 9729,
      "minFilter": 9987,
      "wrapS": 10497,
      "wrapT": 10497
    }
  ],
  "scene": 0,
  "scenes": [
    {
      "name": "OSG_Scene",
      "nodes": [
        0
      ]
    }
  ],
  "textures": [
    {
      "sampler": 0,
      "source": 0
    },
    {
      "sampler": 0,
      "source": 1
    },
    {
      "sampler": 0,
      "source": 2
    }
  ]
}

